<?xml version="1.0" encoding="UTF-8"?> <svg xmlns="http://www.w3.org/2000/svg" xmlns:xlink="http://www.w3.org/1999/xlink" width="183.533" height="45" viewBox="0 0 183.533 45"><defs><style>.a{fill:none;}.b{clip-path:url(#a);}.c{fill:#231f20;}.d{clip-path:url(#b);}.e{fill:url(#c);}.f{clip-path:url(#d);}.g{fill:url(#e);}.h{clip-path:url(#f);}.i{fill:url(#g);}.j{fill:#fff;}</style><clipPath id="a"><rect class="a" width="183.528" height="45"></rect></clipPath><clipPath id="b">
<path class="a" d="M187.6,16.246a2.276,2.276,0,0,0-2.49,1.85L182.262,30.4l-2.774-14.085H174.01L171.094,30.4l-3.2-14.156H162.7l5.62,20.416h5.406l3.13-14.583,3.13,14.512h5.406l5.62-20.416Zm23.261,0H210.5a15.152,15.152,0,0,0-4.055.569,9.532,9.532,0,0,0-3.414,1.707,8.323,8.323,0,0,0-2.419,3.272,12.591,12.591,0,0,0-.854,5.051v9.745h5.406V26.134a4.624,4.624,0,0,1,1.067-3.343,4.481,4.481,0,0,1,3.272-1.067h1.778V16.246Zm-18.282,0V36.591h5.406V18.807a2.632,2.632,0,0,0-2.632-2.632ZM218.327,21.3A3.77,3.77,0,0,1,221.1,20.23a3.7,3.7,0,0,1,2.845,1.067,4.979,4.979,0,0,1,1.067,3.059h-7.825a4.41,4.41,0,0,1,1.138-3.059m-4.268-2.7q-2.347,2.774-2.347,7.683a12.167,12.167,0,0,0,2.419,7.9,8.6,8.6,0,0,0,6.829,2.845,9.817,9.817,0,0,0,5.975-1.778,8.394,8.394,0,0,0,3.2-4.908h-3.841a2.276,2.276,0,0,0-1.423.356,1.636,1.636,0,0,0-.569.64l-.427.427-.427.285a4.339,4.339,0,0,1-2.205.569,3.628,3.628,0,0,1-2.988-1.209,5.264,5.264,0,0,1-1.138-3.557h13.3a1.351,1.351,0,0,0,.071-.569v-.854q0-5.051-2.49-7.9a8.755,8.755,0,0,0-7.113-2.774,8.472,8.472,0,0,0-6.829,2.845M192.505,10.2v4.2h5.406V12.832A2.632,2.632,0,0,0,195.28,10.2Z" transform="translate(-162.7 -10.2)"></path></clipPath>
<radialGradient id="c" cx="0.798" cy="-0.179" r="1.511" gradientTransform="matrix(0.395, 0, 0, -1, -1.03, 2.819)" gradientUnits="objectBoundingBox"><stop offset="0" stop-color="#00a4e4"></stop><stop offset="0.05" stop-color="#00a4e4"></stop><stop offset="0.88" stop-color="#005596"></stop><stop offset="1" stop-color="#005596"></stop></radialGradient>



</defs><g transform="translate(91.767 22.5)"><g transform="translate(-91.767 -22.5)"><g class="b" transform="translate(0 0)">
<path class="c" d="M84.916,38.06A9.461,9.461,0,0,1,81.5,39.127l-3.2.213a8.038,8.038,0,0,1-4.837-1.494Q71.4,36.353,71.4,32.867t1.85-4.695a10.884,10.884,0,0,1,4.766-1.85l.925-.142,1.209-.213q3.414-.427,3.414-1.992a1.423,1.423,0,0,0-1.209-1.494,7.9,7.9,0,0,0-2.205-.356,5.62,5.62,0,0,0-1.921.285,2.063,2.063,0,0,0-1.209,1.28H71.9a5.9,5.9,0,0,1,2.134-3.912A8.954,8.954,0,0,1,79.936,18a13.731,13.731,0,0,1,6.473,1.423,4.908,4.908,0,0,1,2.205,4.268v6.971a8.821,8.821,0,0,1-1.138,4.766,6.829,6.829,0,0,1-2.632,2.49M83.635,28.6a14.512,14.512,0,0,1-2.988,1l-1.778.356a4.553,4.553,0,0,0-1.992,1,3.13,3.13,0,0,0-.569,1.707,2.49,2.49,0,0,0,.711,1.85,2.917,2.917,0,0,0,1.992.64,4.268,4.268,0,0,0,4.624-4.624Z" transform="translate(-20.61 -5.196)"></path>
<path class="c" d="M98.6,10.2h2.774a2.561,2.561,0,0,1,1.85.711,2.419,2.419,0,0,1,.782,1.778V36.662H98.6Z" transform="translate(-28.461 -2.944)"></path>
<path class="c" d="M121.916,38.031A9.461,9.461,0,0,1,118.5,39.1l-3.2.213a8.038,8.038,0,0,1-4.837-1.494q-2.063-1.494-2.063-4.979t1.85-4.624a10.884,10.884,0,0,1,4.837-1.85l.925-.142,1.209-.213q3.343-.427,3.414-1.992a1.423,1.423,0,0,0-1.209-1.494,7.9,7.9,0,0,0-2.205-.356,5.62,5.62,0,0,0-1.921.285,2.063,2.063,0,0,0-1.209,1.138h-5.122a5.9,5.9,0,0,1,2.134-3.912,8.782,8.782,0,0,1,5.9-1.778,13.468,13.468,0,0,1,6.473,1.423,4.908,4.908,0,0,1,2.205,4.268v6.971a8.821,8.821,0,0,1-1.138,4.766,6.758,6.758,0,0,1-2.632,2.49m-1.209-9.461a14.512,14.512,0,0,1-2.988,1l-1.778.356a4.553,4.553,0,0,0-1.992,1,3.13,3.13,0,0,0-.569,1.707,2.49,2.49,0,0,0,.711,1.85,2.917,2.917,0,0,0,1.992.64,4.268,4.268,0,0,0,4.624-4.624Z" transform="translate(-31.29 -5.167)"></path>
<path class="c" d="M153.026,38.914h-2.7a2.49,2.49,0,0,1-2.632-2.632V25.825a3.13,3.13,0,0,0-1.138-2.7,4.055,4.055,0,0,0-2.49-.854,3.841,3.841,0,0,0-2.49.854,3.2,3.2,0,0,0-1.067,2.7V38.914H135.1V26.892q0-5.193,2.7-6.971A11.951,11.951,0,0,1,143.85,18a11.6,11.6,0,0,1,6.189,1.778q2.845,1.778,2.845,7.113Z" transform="translate(-38.997 -5.196)"></path></g><g class="d" transform="translate(115.736 7.256)">
<rect class="e" width="67.791" height="26.775"></rect></g><g class="f" transform="translate(0.071)"><rect class="g" width="45.028" height="45" transform="translate(-0.071 0)"></rect></g><g class="h" transform="translate(0.142 2.205)"><rect class="i" width="44.815" height="42.503" transform="translate(0 0)"></rect></g><g class="b" transform="translate(0 0)">



</g></g></g></svg>
